<?xml version="1.0" encoding="iso-8859-1"?>
<!-- Generator: Adobe Illustrator 21.0.0, SVG Export Plug-In . SVG Version: 6.00 Build 0)  -->
<svg version="1.1" id="Capa_1" xmlns="http://www.w3.org/2000/svg" xmlns:xlink="http://www.w3.org/1999/xlink" x="0px" y="0px"
	 viewBox="0 0 400 400" style="enable-background:new 0 0 400 400;" xml:space="preserve">
<g>
	<g id="layer1_2_" transform="translate(0,-540.36218)">
		<g id="g3003_2_" transform="matrix(1.5,0,0,1.5,-719,-69.681098)">
			<g id="g4172_2_" transform="matrix(0.25,0,0,0.25,550,383.02164)">
				<rect id="rect3263_2_" x="-99" y="256.5" style="fill:#589BE5;" width="786.7" height="611.9"/>
				<rect id="rect3263-1_2_" x="-55.3" y="300.3" style="fill:#FFFFFF;" width="699.3" height="524.4"/>
			</g>
			<g id="g4167_2_" transform="matrix(0.25,0,0,0.25,562.55979,374.36281)">
				<rect id="rect3263-7_2_" x="-324" y="597.1" style="fill:#589BE5;" width="611.9" height="437"/>
				<rect id="rect3263-1-4_2_" x="-280.3" y="640.8" style="fill:#FFFFFF;" width="480.7" height="349.6"/>
				<path id="path4072_2_" style="fill:#FFFFFF;" d="M261.6,815.6c0,9.7-7.8,17.5-17.5,17.5s-17.5-7.8-17.5-17.5
					c0-9.7,7.8-17.5,17.5-17.5C253.8,798.1,261.6,806,261.6,815.6z"/>
			</g>
			<g id="g4163_2_" transform="matrix(0.25,0,0,0.25,551.4308,374.45146)">
				<path id="path4101_2_" style="fill:#589BE5;" d="M616.4,684.2c-1.5,0-3,0.1-4.4,0.4c-1.4,0.3-2.8,0.7-4.1,1.3
					c-1.3,0.6-2.6,1.2-3.7,2c-1.2,0.8-2.2,1.7-3.2,2.6c-1,1-1.9,2.1-2.7,3.3c-0.8,1.2-1.5,2.4-2,3.7c-0.6,1.3-1,2.7-1.3,4.1
					c-0.3,1.4-0.5,2.9-0.5,4.4v262.2c0,1.5,0.2,3,0.5,4.4c0.3,1.4,0.7,2.8,1.3,4.1c0.6,1.3,1.2,2.5,2,3.7c0.8,1.2,1.7,2.3,2.7,3.3
					c1,1,2.1,1.9,3.2,2.7c1.2,0.8,2.4,1.4,3.7,2c1.3,0.6,2.7,1,4.1,1.3c1.4,0.3,2.9,0.4,4.4,0.4h131.1c1.5,0,3-0.1,4.4-0.4
					s2.8-0.7,4.1-1.3c1.3-0.6,2.6-1.2,3.7-2c1.2-0.8,2.2-1.7,3.2-2.7c1-1,1.9-2.1,2.7-3.3c0.8-1.2,1.4-2.4,2-3.7
					c0.6-1.3,1-2.7,1.3-4.1c0.3-1.4,0.4-2.9,0.4-4.4V706c0-1.5-0.1-3-0.4-4.4c-0.3-1.4-0.7-2.8-1.3-4.1c-0.6-1.3-1.2-2.6-2-3.7
					c-0.8-1.2-1.7-2.3-2.7-3.3c-1-1-2.1-1.9-3.2-2.6c-1.2-0.8-2.4-1.5-3.7-2c-1.3-0.6-2.7-1-4.1-1.3s-2.9-0.4-4.4-0.4L616.4,684.2
					L616.4,684.2z"/>
				<rect id="rect3263-1-4-9_2_" x="616.4" y="727.9" style="fill:#FFFFFF;" width="131.1" height="218.5"/>
			</g>
		</g>
	</g>
</g>
</svg>
