<?xml version="1.0" encoding="iso-8859-1"?>
<!-- Generator: Adobe Illustrator 21.0.0, SVG Export Plug-In . SVG Version: 6.00 Build 0)  -->
<svg version="1.1" id="Capa_1" xmlns="http://www.w3.org/2000/svg" xmlns:xlink="http://www.w3.org/1999/xlink" x="0px" y="0px"
	 viewBox="0 0 400 400" style="enable-background:new 0 0 400 400;" xml:space="preserve">
<g>
	<g>
		<path style="fill:#589BE5;" d="M389.8,167.2c-0.4,0-0.7,0.1-1.1,0.1c-1,0.3-1.9,0.5-2.5,0.7l0,0c-2.1,0.5-3.6,2.3-3.6,4.4l0,92.7
			c0,11.9-12,19-23.6,19H64.7c-0.9,0-1.8,0.4-2.3,1l-22.7,26.5c-1.8,2.1-5.3,0.9-5.3-1.8v-21.5c0-0.9-0.4-1.7-1.2-2.3l-2.2-1.6
			l-1.8-1.3c-0.4-0.3-1-0.5-1.6-0.8l-0.3-0.1c-6.1-4.2-9.8-10.8-9.8-17.2V80.3c0-11.7,10.8-22.4,22.7-22.4H359
			c12.1,0,23.6,10.9,23.6,22.4l0,45.2c0,3.4,2.3,6.7,5.8,7.5c5.8,1.4,11.2-2.8,11.2-8.3V80.3c0-20.5-19-38.6-40.6-38.6H40.1
			c-21.1,0-39.7,18-39.7,38.6v184.8c0,11.3,5.9,22.2,15.8,29.5c0.7,0.5,1.2,1.4,1.2,2.2l0,58.5c0,2.7,3.5,3.9,5.3,1.8l47.7-55.9
			c0.6-0.7,1.4-1,2.3-1H359c22.8,0,40.6-15.4,40.6-35.1l0-88.2C399.6,171.7,395.3,167.4,389.8,167.2L389.8,167.2z"/>
		<path style="fill:#589BE5;" d="M27.4,282.5C27.4,282.5,27.5,282.5,27.4,282.5C27.5,282.5,27.4,282.5,27.4,282.5z"/>
	</g>
	<g>
		<ellipse style="opacity:0.8;fill:#589BE5;" cx="200" cy="174.9" rx="17.6" ry="16.8"/>
		<ellipse style="opacity:0.8;fill:#589BE5;" cx="109.8" cy="174.9" rx="17.6" ry="16.8"/>
		<ellipse style="opacity:0.8;fill:#589BE5;" cx="290.2" cy="174.9" rx="17.6" ry="16.8"/>
	</g>
	<ellipse style="fill:#589BE5;" cx="390.6" cy="150.4" rx="8.5" ry="8.1"/>
</g>
</svg>
