<?xml version="1.0" encoding="iso-8859-1"?>
<!-- Generator: Adobe Illustrator 20.1.0, SVG Export Plug-In . SVG Version: 6.00 Build 0)  -->
<svg version="1.1" id="Capa_1" xmlns="http://www.w3.org/2000/svg" xmlns:xlink="http://www.w3.org/1999/xlink" x="0px" y="0px"
	 viewBox="0 0 500 306" style="enable-background:new 0 0 500 306;" xml:space="preserve">
<g>
	<g>
		<path style="fill:#009DE9;" d="M162.9,237.2c-2.3,0-4.5-0.4-6.7-1.3L19.7,179C10.2,175,4,165.7,4,155.4v-11.1
			c0-10.2,6.1-19.4,15.5-23.3L155,64.3c5.7-2.4,12.1-1.7,17.2,1.7c5.1,3.4,8.1,9.1,8.1,15.2v16.8c0,10.9-6.5,20.5-16.6,24.6
			l-68,27.4l68.1,27.3c10,4,16.5,13.6,16.5,24.3v18.3c0,5.8-2.9,11.2-7.8,14.5C169.7,236.2,166.3,237.2,162.9,237.2z M162.1,79.6
			c-0.2,0-0.4,0-0.6,0.1L26,136.3c-3.2,1.3-5.3,4.5-5.3,7.9v11.1c0,3.6,2.1,6.8,5.5,8.2l136.5,56.9c0.1,0,0.3,0.1,0.7-0.1
			c0.3-0.2,0.3-0.5,0.3-0.6v-18.3c0-3.9-2.3-7.4-6-8.8L51,150l106.5-43c3.7-1.5,6.1-5.1,6.1-9.1V81.2c0-0.7-0.4-1.1-0.7-1.3
			C162.7,79.7,162.4,79.6,162.1,79.6z"/>
	</g>
	<g>
		<path style="fill:#009DE9;" d="M225.8,300.7h-23.6c-6.8,0-13-3.1-17.1-8.5c-4.1-5.4-5.4-12.3-3.5-18.8l72.5-252.9
			C256.7,11.4,265.2,5,274.7,5h23.1c6.8,0,13,3.1,17.1,8.5c4.1,5.4,5.4,12.2,3.5,18.8v0l-72,252.9
			C243.8,294.3,235.3,300.7,225.8,300.7z M274.7,21.7c-2.1,0-4,1.4-4.5,3.4L197.7,278c-0.6,2,0.2,3.4,0.8,4.1
			c0.5,0.7,1.7,1.9,3.8,1.9h23.6c2.1,0,4-1.4,4.5-3.4l72-252.9c0.6-2-0.2-3.4-0.8-4.1c-0.5-0.7-1.7-1.9-3.8-1.9H274.7z"/>
	</g>
	<g>
		<path style="fill:#009DE9;" d="M339.6,235.9c-3.9,0-7.7-1.1-11-3.3c-5.6-3.7-8.9-9.9-8.9-16.6v-12.8c0-11.7,7-22.1,17.9-26.5
			l66.6-26.9l-67.4-27c-10.4-4.2-17.1-14.1-17.1-25.3V80c0-5.9,2.9-11.3,7.8-14.6c4.9-3.3,11-3.9,16.5-1.6l135.6,56.4
			c10,4.2,16.5,13.9,16.5,24.8v10.7c0,10.1-6,19.1-15.3,23l-133.4,55.8C344.8,235.4,342.2,235.9,339.6,235.9z M337.2,79.2
			c-0.1,0-0.3,0-0.4,0.1c-0.4,0.2-0.4,0.6-0.4,0.7v17.4c0,4.4,2.6,8.2,6.6,9.8l105.9,42.5l-105.1,42.4c-4.5,1.8-7.4,6.1-7.4,11V216
			c0,1.5,0.9,2.3,1.4,2.7c0.5,0.4,1.7,0.9,3,0.3l133.4-55.8c3.1-1.3,5-4.2,5-7.6V145c0-4.1-2.4-7.8-6.2-9.3L337.5,79.3
			C337.4,79.2,337.3,79.2,337.2,79.2z"/>
	</g>
</g>
</svg>
