<?xml version="1.0" encoding="iso-8859-1"?>
<!-- Generator: Adobe Illustrator 21.0.0, SVG Export Plug-In . SVG Version: 6.00 Build 0)  -->
<svg version="1.1" id="Capa_1" xmlns="http://www.w3.org/2000/svg" xmlns:xlink="http://www.w3.org/1999/xlink" x="0px" y="0px"
	 viewBox="0 0 400 400" style="enable-background:new 0 0 400 400;" xml:space="preserve">
<g>
	<g>
		<path style="fill:#589BE5;" d="M129.4,267.3c-1.7,0-3.4-0.3-5-1h0L13.8,220.2C6.4,217.1,1.7,210,1.7,202.1v-9
			c0-7.9,4.7-14.9,11.9-17.9l109.8-45.9c4.3-1.8,9.1-1.3,12.9,1.2c3.8,2.6,6.1,6.8,6.1,11.4v13.6c0,8.4-5,15.8-12.8,18.9l-57.6,23.2
			l57.7,23.1c7.7,3.1,12.7,10.4,12.7,18.7v14.8c0,4.4-2.2,8.4-5.8,10.9C134.5,266.6,132,267.3,129.4,267.3z M128.8,255.8
			c0.7,0.3,1.3,0,1.5-0.1c0.3-0.2,0.7-0.6,0.7-1.4v-14.8c0-3.6-2.2-6.8-5.5-8.1l-84-33.6l83.9-33.8c3.4-1.4,5.6-4.7,5.6-8.3v-13.6
			c0-1.1-0.7-1.7-1-1.9c-0.4-0.3-1.2-0.6-2.2-0.2L18,185.7c-3,1.3-4.9,4.2-4.9,7.4v9c0,3.3,2,6.3,5.1,7.6L128.8,255.8L128.8,255.8z"
			/>
	</g>
	<g>
		<path style="fill:#589BE5;" d="M180.4,318.8h-19.1c-5.2,0-9.9-2.4-13-6.5c-3.1-4.1-4.1-9.3-2.6-14.3l58.8-205
			c2-6.9,8.4-11.8,15.7-11.8h18.7c5.2,0,9.9,2.4,13,6.5c3.1,4.1,4.1,9.3,2.7,14.3l-58.4,205C194,313.9,187.6,318.8,180.4,318.8z
			 M220,92.6c-2.2,0-4.1,1.5-4.7,3.5l-58.8,205c-0.4,1.5-0.1,3.1,0.8,4.3c0.9,1.2,2.4,1.9,3.9,1.9h19.1c2.2,0,4.1-1.5,4.7-3.6
			l58.4-205c0.4-1.5,0.1-3-0.8-4.3c-0.9-1.2-2.4-1.9-3.9-1.9H220z"/>
	</g>
	<g>
		<path style="fill:#589BE5;" d="M272.6,266.3c-2.9,0-5.8-0.9-8.4-2.5c-4.2-2.8-6.7-7.5-6.7-12.6v-10.4c0-9.1,5.4-17.1,13.8-20.5
			l56.5-22.8l-57.1-22.9c-8-3.2-13.2-10.9-13.2-19.5V141c0-4.4,2.2-8.5,5.8-10.9c3.7-2.4,8.3-2.9,12.3-1.2l109.9,45.7
			c7.7,3.2,12.7,10.7,12.7,19.1v8.7c0,7.7-4.6,14.6-11.7,17.6l-108.2,45.2C276.6,265.9,274.6,266.3,272.6,266.3z M270.7,139.2
			c-0.4,0-0.8,0.2-1,0.3c-0.3,0.2-0.8,0.6-0.8,1.4v14.1c0,4,2.4,7.5,6.1,9l83.4,33.4l-82.7,33.4c-4.1,1.6-6.7,5.5-6.7,9.9v10.4
			c0,1.8,1.1,2.7,1.6,3.1c0.5,0.3,1.8,1,3.5,0.3l108.2-45.2c2.9-1.2,4.7-4,4.7-7.1v-8.7c0-3.8-2.2-7.1-5.7-8.6l-109.9-45.7
			C271.1,139.3,270.9,139.2,270.7,139.2z"/>
	</g>
</g>
</svg>
