<?xml version="1.0" encoding="iso-8859-1"?>
<!-- Generator: Adobe Illustrator 21.0.0, SVG Export Plug-In . SVG Version: 6.00 Build 0)  -->
<svg version="1.1" id="Capa_1" xmlns="http://www.w3.org/2000/svg" xmlns:xlink="http://www.w3.org/1999/xlink" x="0px" y="0px"
	 viewBox="0 0 400 400" style="enable-background:new 0 0 400 400;" xml:space="preserve">
<g>
	<g>
		<g>
			<path style="fill:#589BE5;" d="M32.6,328.4c-4.4,0-8.8-1-13-2.9c-11-5.1-17.8-15.8-17.8-27.9V108.4c0-12.1,6.8-22.8,17.8-27.9
				c11-5.1,23.6-3.4,32.8,4.4l112.1,94.6c6.9,5.9,10.9,14.4,10.9,23.5c0,9.1-4,17.7-10.9,23.5L52.4,321.1
				C46.7,325.9,39.7,328.4,32.6,328.4z M32.7,100.1c-1.6,0-2.9,0.5-3.6,0.8c-1.4,0.7-4.8,2.7-4.8,7.5v189.2c0,4.8,3.4,6.9,4.8,7.5
				c1.4,0.7,5.2,1.9,8.8-1.2l112.1-94.6c2.6-2.2,2.9-4.9,2.9-6.3s-0.4-4.2-2.9-6.3L37.9,102.1C36.1,100.5,34.2,100.1,32.7,100.1z"/>
		</g>
		<g>
			<path style="fill:#589BE5;" d="M199.9,328.4c-4.4,0-8.8-1-13-2.9c-11-5.1-17.8-15.8-17.8-27.9V108.4c0-12.1,6.8-22.8,17.8-27.9
				c11-5.1,23.6-3.4,32.8,4.4l112.1,94.6c6.9,5.9,10.9,14.4,10.9,23.5s-4,17.7-10.9,23.5l-112.1,94.6
				C214,325.9,207,328.4,199.9,328.4z M200,100.1c-1.6,0-2.9,0.5-3.6,0.8c-1.4,0.7-4.8,2.7-4.8,7.5v189.2c0,4.8,3.4,6.9,4.8,7.5
				c1.4,0.7,5.2,1.9,8.8-1.2l112.1-94.6c2.6-2.2,2.9-4.9,2.9-6.3s-0.4-4.2-2.9-6.3l-112.1-94.6C203.4,100.5,201.5,100.1,200,100.1z"
				/>
		</g>
		<g>
			<path style="fill:#589BE5;" d="M387.5,71.6c-4.1,0-7.5,8.1-7.5,18.1v107.1v8.8v104c0,10,3.4,18.1,7.5,18.1h3.3
				c4.1,0,7.5-8.1,7.5-18.1V89.7c0-10-3.4-18.1-7.5-18.1H387.5z"/>
		</g>
	</g>
</g>
</svg>
