<?xml version="1.0" encoding="iso-8859-1"?>
<!-- Generator: Adobe Illustrator 21.0.0, SVG Export Plug-In . SVG Version: 6.00 Build 0)  -->
<svg version="1.1" id="Capa_1" xmlns="http://www.w3.org/2000/svg" xmlns:xlink="http://www.w3.org/1999/xlink" x="0px" y="0px"
	 viewBox="0 0 200 134.5" style="enable-background:new 0 0 200 134.5;" xml:space="preserve">
<g>
	<g>
		<path style="fill:none;stroke:#589BE5;stroke-width:9;stroke-miterlimit:10;" d="M22.8,125.5l57.9-48.9c4.8-4,4.8-11.4,0-15.4
			L22.8,12.3C16.3,6.8,6.2,11.5,6.2,20v97.7C6.2,126.3,16.3,131,22.8,125.5z"/>
		<path style="fill:none;stroke:#589BE5;stroke-width:9;stroke-miterlimit:10;" d="M109.3,125.5l57.9-48.9c4.8-4,4.8-11.4,0-15.4
			l-57.9-48.9c-6.6-5.5-16.6-0.9-16.6,7.7v97.7C92.7,126.3,102.7,131,109.3,125.5z"/>
		<path style="fill:#589BE5;" d="M192.4,1c-2.1,0-3.9,4.2-3.9,9.4v55.3v4.6V124c0,5.2,1.7,9.4,3.9,9.4h1.7c2.1,0,3.9-4.2,3.9-9.4
			V10.4c0-5.2-1.7-9.4-3.9-9.4H192.4z"/>
	</g>
</g>
</svg>
