<?xml version="1.0" encoding="iso-8859-1"?>
<!-- Generator: Adobe Illustrator 21.0.0, SVG Export Plug-In . SVG Version: 6.00 Build 0)  -->
<svg version="1.1" id="Capa_1" xmlns="http://www.w3.org/2000/svg" xmlns:xlink="http://www.w3.org/1999/xlink" x="0px" y="0px"
	 viewBox="0 0 400 400" style="enable-background:new 0 0 400 400;" xml:space="preserve">
<g>
	<g id="Expanded_2_">
		<g>
			<g>
				<path style="fill:#589BE5;" d="M1,349.3V233.2c0-4.6,3.7-8.3,8.3-8.3h381.4c4.6,0,8.3,3.7,8.3,8.3v116.1c0,4.6-3.7,8.3-8.3,8.3
					H9.3C4.7,357.5,1,353.8,1,349.3z M17.6,241.5V341h364.8v-99.5H17.6z"/>
			</g>
			<g>
				<rect x="316.1" y="233.2" style="fill:#589BE5;" width="16.6" height="41.5"/>
			</g>
			<g>
				<rect x="266.3" y="233.2" style="fill:#589BE5;" width="16.6" height="41.5"/>
			</g>
			<g>
				<rect x="216.6" y="233.2" style="fill:#589BE5;" width="16.6" height="41.5"/>
			</g>
			<g>
				<rect x="166.8" y="233.2" style="fill:#589BE5;" width="16.6" height="41.5"/>
			</g>
			<g>
				<rect x="117.1" y="233.2" style="fill:#589BE5;" width="16.6" height="41.5"/>
			</g>
			<g>
				<rect x="67.3" y="233.2" style="fill:#589BE5;" width="16.6" height="41.5"/>
			</g>
			<g>
				<path style="fill:#589BE5;" d="M17.6,117.1V83.9c0-22.9,18.6-41.5,41.5-41.5h240.5c1.6,0,3.2,0.5,4.6,1.4l74.6,49.8
					c4.6,3.1,4.6,10.7,0,13.8l-74.6,49.8c-1.4,0.9-3,1.4-4.6,1.4H59C36.2,158.5,17.6,139.9,17.6,117.1z M297,59H59
					c-13.7,0-24.9,11.2-24.9,24.9v33.2c0,13.7,11.2,24.9,24.9,24.9H297l62.2-41.5L297,59z"/>
			</g>
			<g>
				<path style="fill:#589BE5;" d="M67.3,150.2V50.7c0-4.6,3.7-8.3,8.3-8.3c4.6,0,8.3,3.7,8.3,8.3v99.5c0,4.6-3.7,8.3-8.3,8.3
					C71,158.5,67.3,154.8,67.3,150.2z"/>
			</g>
			<g>
				<path style="fill:#589BE5;" d="M100.5,150.2V50.7c0-4.6,3.7-8.3,8.3-8.3s8.3,3.7,8.3,8.3v99.5c0,4.6-3.7,8.3-8.3,8.3
					S100.5,154.8,100.5,150.2z"/>
			</g>
			<g>
				<path style="fill:#589BE5;" d="M100.5,83.9c0-4.6,3.7-8.3,8.3-8.3h157.5c4.6,0,8.3,3.7,8.3,8.3s-3.7,8.3-8.3,8.3H108.8
					C104.2,92.2,100.5,88.5,100.5,83.9z"/>
			</g>
			<g>
				<path style="fill:#589BE5;" d="M100.5,117.1c0-4.6,3.7-8.3,8.3-8.3h157.5c4.6,0,8.3,3.7,8.3,8.3c0,4.6-3.7,8.3-8.3,8.3H108.8
					C104.2,125.4,100.5,121.7,100.5,117.1z"/>
			</g>
			<g>
				<rect x="324.4" y="75.6" style="fill:#589BE5;" width="16.6" height="49.8"/>
			</g>
			<g>
				<path style="fill:#589BE5;" d="M258,75.6c0-18.3,14.9-33.2,33.2-33.2c4.6,0,8.3,3.7,8.3,8.3s-3.7,8.3-8.3,8.3
					c-9.1,0-16.6,7.4-16.6,16.6s7.4,16.6,16.6,16.6c4.6,0,8.3,3.7,8.3,8.3s-3.7,8.3-8.3,8.3C272.9,108.8,258,93.9,258,75.6z"/>
			</g>
			<g>
				<path style="fill:#589BE5;" d="M258,125.4c0-18.3,14.9-33.2,33.2-33.2c4.6,0,8.3,3.7,8.3,8.3s-3.7,8.3-8.3,8.3
					c-9.1,0-16.6,7.4-16.6,16.6c0,9.1,7.4,16.6,16.6,16.6c4.6,0,8.3,3.7,8.3,8.3c0,4.6-3.7,8.3-8.3,8.3
					C272.9,158.5,258,143.7,258,125.4z"/>
			</g>
		</g>
	</g>
</g>
</svg>
