<?xml version="1.0" encoding="iso-8859-1"?>
<!-- Generator: Adobe Illustrator 20.1.0, SVG Export Plug-In . SVG Version: 6.00 Build 0)  -->
<svg version="1.1" id="Capa_1" xmlns="http://www.w3.org/2000/svg" xmlns:xlink="http://www.w3.org/1999/xlink" x="0px" y="0px"
	 viewBox="0 0 500 402" style="enable-background:new 0 0 500 402;" xml:space="preserve">
<g>
	<g id="Expanded_1_">
		<g>
			<g>
				<path style="fill:#009DE9;" d="M2.2,386.8V242.3c0-5.7,4.6-10.3,10.3-10.3h474.9c5.7,0,10.3,4.6,10.3,10.3v144.5
					c0,5.7-4.6,10.3-10.3,10.3H12.5C6.8,397.2,2.2,392.5,2.2,386.8z M22.9,252.6v123.9h454.3V252.6H22.9z"/>
			</g>
			<g>
				<rect x="394.5" y="242.3" style="fill:#009DE9;" width="20.6" height="51.6"/>
			</g>
			<g>
				<rect x="332.6" y="242.3" style="fill:#009DE9;" width="20.6" height="51.6"/>
			</g>
			<g>
				<rect x="270.6" y="242.3" style="fill:#009DE9;" width="20.6" height="51.6"/>
			</g>
			<g>
				<rect x="208.7" y="242.3" style="fill:#009DE9;" width="20.6" height="51.6"/>
			</g>
			<g>
				<rect x="146.8" y="242.3" style="fill:#009DE9;" width="20.6" height="51.6"/>
			</g>
			<g>
				<rect x="84.8" y="242.3" style="fill:#009DE9;" width="20.6" height="51.6"/>
			</g>
			<g>
				<path style="fill:#009DE9;" d="M22.9,97.7V56.4C22.9,28,46,4.8,74.5,4.8h299.4c2,0,4,0.6,5.7,1.7l92.9,61.9
					c5.8,3.8,5.8,13.3,0,17.2l-92.9,61.9c-1.7,1.1-3.7,1.7-5.7,1.7H74.5C46,149.4,22.9,126.2,22.9,97.7z M370.8,25.5H74.5
					c-17.1,0-31,13.9-31,31v41.3c0,17.1,13.9,31,31,31h296.3l77.4-51.6L370.8,25.5z"/>
			</g>
			<g>
				<path style="fill:#009DE9;" d="M84.8,139V15.1c0-5.7,4.6-10.3,10.3-10.3s10.3,4.6,10.3,10.3V139c0,5.7-4.6,10.3-10.3,10.3
					S84.8,144.8,84.8,139z"/>
			</g>
			<g>
				<path style="fill:#009DE9;" d="M126.1,139V15.1c0-5.7,4.6-10.3,10.3-10.3s10.3,4.6,10.3,10.3V139c0,5.7-4.6,10.3-10.3,10.3
					S126.1,144.8,126.1,139z"/>
			</g>
			<g>
				<path style="fill:#009DE9;" d="M126.1,56.4c0-5.7,4.6-10.3,10.3-10.3h196.2c5.7,0,10.3,4.6,10.3,10.3s-4.6,10.3-10.3,10.3H136.4
					C130.7,66.8,126.1,62.2,126.1,56.4z"/>
			</g>
			<g>
				<path style="fill:#009DE9;" d="M126.1,97.7c0-5.7,4.6-10.3,10.3-10.3h196.2c5.7,0,10.3,4.6,10.3,10.3c0,5.7-4.6,10.3-10.3,10.3
					H136.4C130.7,108.1,126.1,103.5,126.1,97.7z"/>
			</g>
			<g>
				<rect x="404.9" y="46.1" style="fill:#009DE9;" width="20.6" height="61.9"/>
			</g>
			<g>
				<path style="fill:#009DE9;" d="M322.3,46.1c0-22.8,18.5-41.3,41.3-41.3c5.7,0,10.3,4.6,10.3,10.3s-4.6,10.3-10.3,10.3
					c-11.4,0-20.6,9.3-20.6,20.6s9.3,20.6,20.6,20.6c5.7,0,10.3,4.6,10.3,10.3c0,5.7-4.6,10.3-10.3,10.3
					C340.8,87.4,322.3,68.9,322.3,46.1z"/>
			</g>
			<g>
				<path style="fill:#009DE9;" d="M322.3,108.1c0-22.8,18.5-41.3,41.3-41.3c5.7,0,10.3,4.6,10.3,10.3c0,5.7-4.6,10.3-10.3,10.3
					c-11.4,0-20.6,9.3-20.6,20.6s9.3,20.6,20.6,20.6c5.7,0,10.3,4.6,10.3,10.3c0,5.7-4.6,10.3-10.3,10.3
					C340.8,149.4,322.3,130.8,322.3,108.1z"/>
			</g>
		</g>
	</g>
</g>
</svg>
