<?xml version="1.0" encoding="iso-8859-1"?>
<!-- Generator: Adobe Illustrator 20.1.0, SVG Export Plug-In . SVG Version: 6.00 Build 0)  -->
<svg version="1.1" id="Capa_1" xmlns="http://www.w3.org/2000/svg" xmlns:xlink="http://www.w3.org/1999/xlink" x="0px" y="0px"
	 viewBox="0 0 500 473.5" style="enable-background:new 0 0 500 473.5;" xml:space="preserve">
<g>
	<g>
		<defs>
			<circle id="SVGID_1_" cx="249.3" cy="68.7" r="225.4"/>
		</defs>
		<clipPath id="SVGID_2_">
			<use xlink:href="#SVGID_1_"  style="overflow:visible;"/>
		</clipPath>
		<g style="clip-path:url(#SVGID_2_);">
			<path style="fill:#009DE9;" d="M303.8,130.8c19.7,5.8,36.8,17.9,48.8,34c11.8,15.7,18.8,35.2,18.8,56.1v84.3v9.6h-9.6H136.9h-9.6
				v-9.6v-84.3c0-20.9,7-40.4,18.8-56.1c12-16,29.1-28.2,48.8-34l5.4-1.6l4.1,3.9c5.9,5.7,13,10.4,20.8,13.5
				c7.5,3,15.7,4.7,24.3,4.7c8.6,0,16.8-1.7,24.3-4.7c7.8-3.2,14.8-7.8,20.8-13.5l4-3.9L303.8,130.8z"/>
		</g>
		<g style="clip-path:url(#SVGID_2_);">
			<path style="fill:#009DE9;" d="M249.3,6.5c18.1,0,34.6,7.4,46.5,19.3l0,0c11.9,11.9,19.3,28.4,19.3,46.5
				c0,18.2-7.4,34.7-19.3,46.6c-11.9,11.9-28.4,19.3-46.6,19.3c-18.1,0-34.6-7.4-46.5-19.3l0,0c-11.9-11.9-19.3-28.4-19.3-46.5
				c0-18.2,7.4-34.7,19.3-46.6C214.7,13.9,231.2,6.5,249.3,6.5z"/>
		</g>
		<g style="clip-path:url(#SVGID_2_);">
			<path style="fill:#FFFFFF;" d="M282.3,39.4c-8.4-8.4-20.1-13.6-33-13.6s-24.5,5.2-32.9,13.6c-8.4,8.4-13.6,20.1-13.6,32.9
				s5.2,24.6,13.6,32.9l0,0c8.4,8.4,20.1,13.6,32.9,13.6s24.5-5.2,32.9-13.6c8.4-8.4,13.6-20.1,13.6-32.9S290.7,47.8,282.3,39.4z"/>
		</g>
		<g style="clip-path:url(#SVGID_2_);">
			<path style="fill:#FFFFFF;" d="M304.1,295.6l-0.2-38.5c0-5.3,4.3-9.6,9.6-9.6c5.3,0,9.6,4.3,9.6,9.6l0.2,38.5h28.9v-74.7
				c0-16.7-5.5-32.2-14.9-44.6c-8.6-11.4-20.3-20.3-33.9-25.4c-6.7,5.7-14.3,10.3-22.5,13.6c-9.8,4-20.4,6.1-31.5,6.1
				c-11.1,0-21.8-2.2-31.5-6.1c-8.2-3.3-15.8-8-22.5-13.6c-13.5,5.1-25.3,14-33.9,25.4c-9.3,12.4-14.9,27.9-14.9,44.6v74.7h29
				l-0.2-38.5c0-5.3,4.3-9.6,9.6-9.6s9.6,4.3,9.6,9.6l0.2,38.5H304.1L304.1,295.6z"/>
		</g>
	</g>
	<g>
		<path style="fill:#009DE9;" d="M468.8,208.8c7.8,0,12.4,8.9,7.7,15.3c-51.2,69.8-134,115.8-227.2,115.8
			c-93.2,0-176-46-227.2-115.8c-4.6-6.3-0.1-15.3,7.7-15.3h4.6c3,0,5.8,1.5,7.7,3.9c47.3,62.9,122.6,103.7,207.2,103.7
			c84.6,0,160-40.8,207.2-103.7c1.8-2.4,4.6-3.9,7.7-3.9H468.8z"/>
	</g>
	<g>
		<path style="fill:#009DE9;" d="M466.9,364.8c-1.8,0-3.5-0.7-4.9-2l-73.9-73.9c-2.7-2.7-2.7-7.1,0-9.8c2.7-2.7,7.1-2.7,9.8,0
			l73.9,73.9c2.7,2.7,2.7,7.1,0,9.8C470.5,364.1,468.7,364.8,466.9,364.8z"/>
	</g>
	<g>
		<path style="fill:#009DE9;" d="M39.2,364.1c-1.8,0-3.5-0.7-4.9-2c-2.7-2.7-2.7-7.1,0-9.8l70.1-70.1c2.7-2.7,7.1-2.7,9.8,0
			c2.7,2.7,2.7,7.1,0,9.8L44,362.1C42.7,363.4,40.9,364.1,39.2,364.1z"/>
	</g>
	<g>
		<path style="fill:#009DE9;" d="M244.5,422.1c-3.8,0-7.5-3.1-7.5-6.9v-86.5c0-3.8,3.7-6.9,7.5-6.9s7.5,3.1,7.5,6.9v86.5
			C252,419,248.3,422.1,244.5,422.1z"/>
	</g>
	<g>
		<path style="fill:#009DE9;" d="M489.8,388.4h-41.5c-3.8,0-6.9-3.2-6.9-7c0-3.8,3.1-7,6.9-7H484v-42.3c0-3.8,2.2-6.9,6-6.9
			s6,3.1,6,6.9v48.4C496,384.4,493.6,388.4,489.8,388.4z"/>
	</g>
	<g>
		<path style="fill:#009DE9;" d="M53.9,388.4H12.4c-3.8,0-7.4-4-7.4-7.8v-48.4c0-3.8,3.2-6.9,7-6.9s7,3.1,7,6.9v42.3h34.9
			c3.8,0,6.9,3.2,6.9,7C60.8,385.2,57.7,388.4,53.9,388.4z"/>
	</g>
	<g>
		<path style="fill:#009DE9;" d="M243.8,465.7c-1.8,0-3.5-0.7-4.9-2l-34.3-34.3c-2.7-2.7-2.7-7.1,0-9.8c2.7-2.7,7.1-2.7,9.8,0
			l29.4,29.4l29.4-29.4c2.7-2.7,7.1-2.7,9.8,0c2.7,2.7,2.7,7.1,0,9.8l-34.3,34.3C247.4,465,245.6,465.7,243.8,465.7z"/>
	</g>
</g>
</svg>
