<?xml version="1.0" encoding="iso-8859-1"?>
<!-- Generator: Adobe Illustrator 21.0.0, SVG Export Plug-In . SVG Version: 6.00 Build 0)  -->
<svg version="1.1" id="Capa_1" xmlns="http://www.w3.org/2000/svg" xmlns:xlink="http://www.w3.org/1999/xlink" x="0px" y="0px"
	 viewBox="0 0 400 400" style="enable-background:new 0 0 400 400;" xml:space="preserve">
<g>
	<g>
		<defs>
			<circle id="SVGID_1_" cx="201.2" cy="65.4" r="177"/>
		</defs>
		<clipPath id="SVGID_2_">
			<use xlink:href="#SVGID_1_"  style="overflow:visible;"/>
		</clipPath>
		<g style="clip-path:url(#SVGID_2_);">
			<path style="fill:#589BE5;" d="M244,114.1c15.5,4.6,28.9,14.1,38.3,26.7c9.2,12.3,14.7,27.6,14.7,44.1v66.2v7.6h-7.6H112.9h-7.6
				v-7.6v-66.2c0-16.5,5.5-31.7,14.7-44.1c9.5-12.6,22.9-22.2,38.3-26.7l4.2-1.2l3.2,3.1c4.7,4.5,10.2,8.2,16.3,10.6
				c5.9,2.4,12.3,3.7,19.1,3.7c6.8,0,13.2-1.3,19.1-3.7c6.1-2.5,11.7-6.1,16.3-10.6l3.2-3.1L244,114.1z"/>
		</g>
		<g style="clip-path:url(#SVGID_2_);">
			<path style="fill:#589BE5;" d="M201.2,16.5c14.2,0,27.2,5.8,36.5,15.2l0,0C247.2,41.1,253,54,253,68.3c0,14.3-5.8,27.2-15.2,36.6
				c-9.3,9.3-22.3,15.2-36.6,15.2c-14.2,0-27.2-5.8-36.5-15.2l0,0c-9.3-9.4-15.2-22.3-15.2-36.5c0-14.3,5.8-27.2,15.2-36.6
				C174,22.4,187,16.5,201.2,16.5z"/>
		</g>
		<g style="clip-path:url(#SVGID_2_);">
			<path style="fill:#FFFFFF;" d="M227.1,42.4c-6.6-6.6-15.8-10.7-25.9-10.7c-10.1,0-19.3,4.1-25.9,10.7
				c-6.6,6.6-10.7,15.8-10.7,25.9s4.1,19.3,10.7,25.9l0,0c6.6,6.6,15.8,10.7,25.9,10.7c10.1,0,19.3-4.1,25.9-10.7
				c6.6-6.6,10.7-15.8,10.7-25.9S233.7,49,227.1,42.4z"/>
		</g>
		<g style="clip-path:url(#SVGID_2_);">
			<path style="fill:#FFFFFF;" d="M244.2,243.6l-0.2-30.2c0-4.2,3.4-7.6,7.5-7.6c4.2,0,7.6,3.4,7.6,7.5l0.2,30.3H282v-58.7
				c0-13.1-4.3-25.3-11.7-35c-6.7-9-16-16-26.6-20c-5.3,4.4-11.2,8.1-17.7,10.7c-7.7,3.1-16,4.8-24.7,4.8c-8.8,0-17.1-1.7-24.7-4.8
				c-6.4-2.6-12.4-6.3-17.7-10.7c-10.6,4-19.9,11-26.6,20c-7.3,9.8-11.7,21.9-11.7,35v58.7h22.8l-0.2-30.2c0-4.2,3.4-7.6,7.5-7.6
				c4.2,0,7.6,3.4,7.6,7.5l0.2,30.3H244.2L244.2,243.6z"/>
		</g>
	</g>
	<g>
		<path style="fill:#589BE5;" d="M373.6,175.5c6.2,0,9.7,7,6.1,12c-40.2,54.8-105.2,91-178.5,91c-73.2,0-138.3-36.1-178.4-91
			c-3.6-5-0.1-12,6.1-12h3.6c2.4,0,4.6,1.1,6,3c37.1,49.4,96.3,81.5,162.8,81.5c66.5,0,125.6-32,162.8-81.5c1.4-1.9,3.6-3,6-3H373.6
			z"/>
	</g>
	<g>
		<path style="fill:#589BE5;" d="M369.5,308.4c-2.7,0-5.4-1-7.5-3.1L304,247.2c-4.1-4.1-4.1-10.8,0-14.9c4.1-4.1,10.8-4.1,14.9,0
			l58.1,58.1c4.1,4.1,4.1,10.8,0,14.9C375,307.3,372.3,308.4,369.5,308.4z"/>
	</g>
	<g>
		<path style="fill:#589BE5;" d="M28.2,313.1c-2.7,0-5.4-1-7.5-3.1c-4.1-4.1-4.1-10.8,0-14.9l55-55c4.1-4.1,10.8-4.1,14.9,0
			c4.1,4.1,4.1,10.8,0,14.9l-55,55C33.6,312.1,30.9,313.1,28.2,313.1z"/>
	</g>
	<g>
		<path style="fill:#589BE5;" d="M197.4,360.5c-5.8,0-10.6-4.7-10.6-10.6v-68.7c0-5.8,4.7-10.6,10.6-10.6s10.6,4.7,10.6,10.6V350
			C207.9,355.8,203.2,360.5,197.4,360.5z"/>
	</g>
	<g>
		<path style="fill:#589BE5;" d="M386.5,326.8h-31.7c-5.8,0-10.6-4.7-10.6-10.6c0-5.8,4.7-10.6,10.6-10.6H376V274
			c0-5.8,4.7-10.6,10.6-10.6c5.8,0,10.6,4.7,10.6,10.6v42.3C397.1,322.1,392.4,326.8,386.5,326.8z"/>
	</g>
	<g>
		<path style="fill:#589BE5;" d="M44.2,328.8H12.5c-5.8,0-10.6-4.7-10.6-10.6V276c0-5.8,4.7-10.6,10.6-10.6S23,270.2,23,276v31.7
			h21.1c5.8,0,10.6,4.7,10.6,10.6C54.7,324.1,50,328.8,44.2,328.8z"/>
	</g>
	<g>
		<path style="fill:#589BE5;" d="M194.3,382.3c-2.7,0-5.4-1-7.5-3.1l-26.9-26.9c-4.1-4.1-4.1-10.8,0-14.9c4.1-4.1,10.8-4.1,14.9,0
			l19.5,19.5l19.5-19.5c4.1-4.1,10.8-4.1,14.9,0c4.1,4.1,4.1,10.8,0,14.9l-26.9,26.9C199.7,381.3,197,382.3,194.3,382.3z"/>
	</g>
</g>
</svg>
