<?xml version="1.0" encoding="iso-8859-1"?>
<!-- Generator: Adobe Illustrator 20.1.0, SVG Export Plug-In . SVG Version: 6.00 Build 0)  -->
<svg version="1.1" id="Capa_1" xmlns="http://www.w3.org/2000/svg" xmlns:xlink="http://www.w3.org/1999/xlink" x="0px" y="0px"
	 viewBox="0 0 200 200" style="enable-background:new 0 0 200 200;" xml:space="preserve">
<g>
	<g id="Flat_copy_5_">
		<g>
			<g>
				<path style="fill:#FFFFFF;" d="M100,195.3c-52.5,0-95.3-42.7-95.3-95.3C4.7,47.5,47.5,4.7,100,4.7c52.5,0,95.3,42.7,95.3,95.3
					C195.3,152.5,152.5,195.3,100,195.3z"/>
				<path style="fill:#E3E3E3;" d="M100,7c51.3,0,93,41.7,93,93s-41.7,93-93,93S7,151.3,7,100S48.7,7,100,7 M100,2.4
					C46.1,2.4,2.4,46.1,2.4,100c0,53.9,43.7,97.6,97.6,97.6s97.6-43.7,97.6-97.6C197.6,46.1,153.9,2.4,100,2.4L100,2.4z"/>
			</g>
		</g>
		<path style="fill:#333333;" d="M85.9,154.3h22.4V100h15l2-18.7h-16.9l0-9.4c0-4.9,0.5-7.5,7.5-7.5h9.4V45.7h-15
			c-18,0-24.3,9.1-24.3,24.3v11.2H74.7V100h11.2V154.3z"/>
	</g>
</g>
</svg>
