<?xml version="1.0" encoding="iso-8859-1"?>
<!-- Generator: Adobe Illustrator 21.0.0, SVG Export Plug-In . SVG Version: 6.00 Build 0)  -->
<svg version="1.1" id="Capa_1" xmlns="http://www.w3.org/2000/svg" xmlns:xlink="http://www.w3.org/1999/xlink" x="0px" y="0px"
	 viewBox="0 0 400 400" style="enable-background:new 0 0 400 400;" xml:space="preserve">
<g>
	<g id="List_2_">
		<path style="fill:#589BE5;" d="M150.8,89.6l232.8,0.2c6.8,0,12.2-5.5,12.2-12.2s-5.5-12.2-12.2-12.2l-232.8-0.2
			c-6.8,0-12.2,5.5-12.2,12.2S144,89.6,150.8,89.6z"/>
		<path style="fill:#589BE5;" d="M383.8,187.8L151,187.5c-6.8,0-12.2,5.5-12.2,12.2c0,6.8,5.5,12.2,12.2,12.2l232.8,0.2
			c6.8,0,12.2-5.5,12.2-12.2C396,193.2,390.5,187.8,383.8,187.8z"/>
		<path style="fill:#589BE5;" d="M383.8,310.2L151,310c-6.8,0-12.2,5.5-12.2,12.2s5.5,12.2,12.2,12.2l232.8,0.2
			c6.8,0,12.2-5.5,12.2-12.2S390.5,310.2,383.8,310.2z"/>
		<path style="fill:#589BE5;" d="M52.9,28.7C25.9,28.7,4,50.6,4,77.6s21.9,48.9,48.9,48.9s48.9-21.9,48.9-48.9S79.9,28.7,52.9,28.7z
			 M52.8,102.1c-13.8,0-24.8-10.7-24.8-24.5s11-24.5,24.8-24.5s24.5,10.7,24.5,24.5S66.5,102.1,52.8,102.1z"/>
		<path style="fill:#589BE5;" d="M52.9,151.2c-27,0-48.9,21.9-48.9,48.9S25.9,249,52.9,249s48.9-21.9,48.9-48.9
			S79.9,151.2,52.9,151.2z M52.8,224.6c-13.8,0-24.8-10.7-24.8-24.5c0-13.8,11-24.5,24.8-24.5s24.5,10.7,24.5,24.5
			C77.3,213.9,66.5,224.6,52.8,224.6z"/>
		<path style="fill:#589BE5;" d="M52.9,273.5c-27,0-48.9,21.9-48.9,48.9s21.9,48.9,48.9,48.9s48.9-21.9,48.9-48.9
			S79.9,273.5,52.9,273.5z M52.8,346.9c-13.8,0-24.8-10.7-24.8-24.5s11-24.5,24.8-24.5s24.5,10.7,24.5,24.5S66.5,346.9,52.8,346.9z"
			/>
	</g>
</g>
</svg>
