<?xml version="1.0" encoding="iso-8859-1"?>
<!-- Generator: Adobe Illustrator 21.0.0, SVG Export Plug-In . SVG Version: 6.00 Build 0)  -->
<svg version="1.1" id="Capa_1" xmlns="http://www.w3.org/2000/svg" xmlns:xlink="http://www.w3.org/1999/xlink" x="0px" y="0px"
	 viewBox="0 0 200 173.2" style="enable-background:new 0 0 200 173.2;" xml:space="preserve">
<g>
	<g id="List_2_">
		<path style="fill:#589BE5;" d="M75.4,31.3l116.4,0.1c3.4,0,6.1-2.7,6.1-6.1s-2.7-6.1-6.1-6.1L75.4,19.1c-3.4,0-6.1,2.7-6.1,6.1
			S72,31.3,75.4,31.3z"/>
		<path style="fill:#589BE5;" d="M191.9,80.4L75.5,80.3c-3.4,0-6.1,2.7-6.1,6.1c0,3.4,2.7,6.1,6.1,6.1l116.4,0.1
			c3.4,0,6.1-2.7,6.1-6.1C198,83.1,195.3,80.4,191.9,80.4z"/>
		<path style="fill:#589BE5;" d="M191.9,141.6l-116.4-0.1c-3.4,0-6.1,2.7-6.1,6.1s2.7,6.1,6.1,6.1l116.4,0.1c3.4,0,6.1-2.7,6.1-6.1
			S195.3,141.6,191.9,141.6z"/>
		<path style="fill:#589BE5;" d="M26.4,0.9C12.9,0.9,2,11.8,2,25.3s10.9,24.4,24.4,24.4s24.4-10.9,24.4-24.4S39.9,0.9,26.4,0.9z
			 M26.4,37.6c-6.9,0-12.4-5.4-12.4-12.2s5.5-12.2,12.4-12.2s12.2,5.4,12.2,12.2S33.3,37.6,26.4,37.6z"/>
		<path style="fill:#589BE5;" d="M26.4,62.1C12.9,62.1,2,73.1,2,86.6S12.9,111,26.4,111s24.4-10.9,24.4-24.4S39.9,62.1,26.4,62.1z
			 M26.4,98.8c-6.9,0-12.4-5.4-12.4-12.2c0-6.9,5.5-12.2,12.4-12.2s12.2,5.4,12.2,12.2C38.6,93.4,33.3,98.8,26.4,98.8z"/>
		<path style="fill:#589BE5;" d="M26.4,123.2C12.9,123.2,2,134.2,2,147.7s10.9,24.4,24.4,24.4s24.4-10.9,24.4-24.4
			S39.9,123.2,26.4,123.2z M26.4,159.9c-6.9,0-12.4-5.4-12.4-12.2s5.5-12.2,12.4-12.2s12.2,5.4,12.2,12.2S33.3,159.9,26.4,159.9z"/>
	</g>
</g>
</svg>
