<?xml version="1.0" encoding="iso-8859-1"?>
<!-- Generator: Adobe Illustrator 20.1.0, SVG Export Plug-In . SVG Version: 6.00 Build 0)  -->
<svg version="1.1" id="Capa_1" xmlns="http://www.w3.org/2000/svg" xmlns:xlink="http://www.w3.org/1999/xlink" x="0px" y="0px"
	 viewBox="0 0 200 200" style="enable-background:new 0 0 200 200;" xml:space="preserve">
<g>
	<g id="Flat_copy_1_">
		<g>
			<g>
				<path style="fill:#FFFFFF;" d="M100,195.8c-52.8,0-95.8-43-95.8-95.8S47.2,4.2,100,4.2s95.8,43,95.8,95.8S152.8,195.8,100,195.8
					z"/>
				<path style="fill:#E3E3E3;" d="M100,6.5c51.5,0,93.5,41.9,93.5,93.5s-41.9,93.5-93.5,93.5S6.5,151.5,6.5,100S48.5,6.5,100,6.5
					 M100,1.9C45.8,1.9,1.9,45.8,1.9,100c0,54.2,43.9,98.1,98.1,98.1s98.1-43.9,98.1-98.1C198.1,45.8,154.2,1.9,100,1.9L100,1.9z"/>
			</g>
		</g>
		<path style="fill:#333333;" d="M150.8,142.6v-37.6c0-20.2-10.8-29.5-25.1-29.5c-11.6,0-16.8,6.4-19.7,10.8v-9.3H84.3
			c0.3,6.2,0,65.6,0,65.6h21.8v-36.6c0-2,0.1-3.9,0.7-5.3c1.6-3.9,5.2-8,11.2-8c7.9,0,11.1,6,11.1,14.8v35.1L150.8,142.6
			L150.8,142.6z M61.3,68c7.6,0,12.3-5,12.3-11.3c-0.1-6.4-4.7-11.3-12.2-11.3s-12.3,4.9-12.3,11.3c0,6.3,4.7,11.3,12.1,11.3
			L61.3,68L61.3,68z M72.2,142.6V76.9H50.4v65.6H72.2z"/>
	</g>
</g>
</svg>
