<?xml version="1.0" encoding="iso-8859-1"?>
<!-- Generator: Adobe Illustrator 20.1.0, SVG Export Plug-In . SVG Version: 6.00 Build 0)  -->
<svg version="1.1" id="Capa_1" xmlns="http://www.w3.org/2000/svg" xmlns:xlink="http://www.w3.org/1999/xlink" x="0px" y="0px"
	 viewBox="0 0 200 56.5" style="enable-background:new 0 0 200 56.5;" xml:space="preserve">
<g>
	<g>
		<g>
			<path style="fill:#4B85B1;" d="M63.9,9.3l6.8,0l3.5,9.8l15.4,0L93,9.3h6.5l-12.8,38h-9.3L63.9,9.3z M81.9,40.6l4-11.1l1.6-4.5
				l-11.1,0l1.7,4.5L81.9,40.6z M81.1,42"/>
		</g>
	</g>
	<g>
		<polygon style="fill:#D6D6D6;" points="52.8,0.8 54.2,0.8 64,28.8 62.6,28.8 		"/>
		<g>
			<polygon style="fill:#4B85B1;" points="62.6,28.8 64,28.8 73.8,55.8 72.4,55.8 			"/>
		</g>
	</g>
	<g>
		<path style="fill:#D6D6D6;" d="M0.4,28.4c0-12.1,7.2-19.1,16.8-19.1c4.9,0,8.3,2.3,10.5,4.6l-3.6,4c-1.7-1.7-3.6-3-6.8-3
			c-5.9,0-10,5-10,13.3c0,8.4,3.6,13.4,10.1,13.4c2,0,3.9-0.6,5-1.6v-8.8h-6.4V25h12.3v17.9c-2.4,2.4-6.6,4.4-11.3,4.4
			C7.5,47.3,0.4,40.5,0.4,28.4z"/>
	</g>
	<g>
		<path style="fill:#D6D6D6;" d="M60.6,41.8H42v-10h15.1l-2.2-7H42v-9h9.5l-2.2-6H35v38h27.8L60.6,41.8z"/>
	</g>
	<g>
		<path style="fill:#4B85B1;" d="M106.2,9.2h12.6c8.4,0,14.6,2.9,14.6,11.8c0,8.4-6.3,12.3-14.6,12.3H113v14h-6.8V9.2z M118.2,27.9
			c5.7,0,8.4-2.3,8.4-6.9c0-4.8-2.9-6.3-8.4-6.3H113v13.3H118.2z"/>
	</g>
	<g>
		<path style="fill:#4B85B1;" d="M139.9,9.2h12.6c8.4,0,14.6,2.9,14.6,11.8c0,8.4-6.3,12.3-14.6,12.3h-5.8v14h-6.8V9.2z M152,27.9
			c5.7,0,8.4-2.3,8.4-6.9c0-4.8-2.9-6.3-8.4-6.3h-5.3v13.3H152z"/>
	</g>
	<g>
		<path style="fill:#4B85B1;" d="M172.1,42l3.8-4.4c2.8,2.5,6.4,4.2,10.3,4.2c4.3,0,6.6-1.9,6.6-4.4c0-3.3-2.5-4.2-6.2-5.7l-5-2.2
			c-3.9-1.5-7.9-4.4-7.9-9.8c0-5.8,5.3-10.3,12.8-10.3c4.5,0,8.8,1.8,11.9,4.7l-3.4,4.2c-2.5-2-5.1-3.1-8.8-3.1
			c-3.5,0-5.9,1.6-5.9,4.3c0,2.8,3,3.9,6.3,5.2l4.9,2.1c4.7,1.9,8,4.6,8,9.9c0,5.9-5.1,10.9-13.7,10.9
			C180.7,47.4,175.8,45.4,172.1,42z"/>
	</g>
</g>
</svg>
