<?xml version="1.0" encoding="iso-8859-1"?>
<!-- Generator: Adobe Illustrator 20.1.0, SVG Export Plug-In . SVG Version: 6.00 Build 0)  -->
<svg version="1.1" id="Capa_1" xmlns="http://www.w3.org/2000/svg" xmlns:xlink="http://www.w3.org/1999/xlink" x="0px" y="0px"
	 viewBox="0 0 200 142" style="enable-background:new 0 0 200 142;" xml:space="preserve">
<g>
	<g id="layer1_2_" transform="translate(0,-540.36218)">
		<g id="g3003_2_" transform="matrix(1.5,0,0,1.5,-719,-69.681098)">
			<g id="g4172_2_" transform="matrix(0.25,0,0,0.25,550,383.02164)">
				<rect id="rect3263_2_" x="-192.1" y="96.3" style="fill:#589BE5;" width="396.5" height="308.4"/>
				<rect id="rect3263-1_2_" x="-170.1" y="118.3" style="fill:#FFFFFF;" width="352.5" height="264.3"/>
			</g>
			<g id="g4167_2_" transform="matrix(0.25,0,0,0.25,562.55979,374.36281)">
				<rect id="rect3263-7_2_" x="-330.5" y="285.1" style="fill:#589BE5;" width="308.4" height="220.3"/>
				<rect id="rect3263-1-4_2_" x="-308.5" y="307.1" style="fill:#FFFFFF;" width="242.3" height="176.2"/>
				<path id="path4072_2_" style="fill:#FFFFFF;" d="M-35.3,395.3c0,4.9-3.9,8.8-8.8,8.8s-8.8-3.9-8.8-8.8c0-4.9,3.9-8.8,8.8-8.8
					C-39.3,386.4-35.3,390.4-35.3,395.3z"/>
			</g>
			<g id="g4163_2_" transform="matrix(0.25,0,0,0.25,551.4308,374.45146)">
				<path id="path4101_2_" style="fill:#589BE5;" d="M165.6,328.8c-0.8,0-1.5,0.1-2.2,0.2c-0.7,0.1-1.4,0.4-2.1,0.6
					c-0.7,0.3-1.3,0.6-1.9,1c-0.6,0.4-1.1,0.8-1.6,1.3c-0.5,0.5-1,1.1-1.3,1.6c-0.4,0.6-0.7,1.2-1,1.9c-0.3,0.7-0.5,1.3-0.6,2.1
					c-0.1,0.7-0.2,1.5-0.2,2.2V472c0,0.8,0.1,1.5,0.2,2.2c0.1,0.7,0.4,1.4,0.6,2.1c0.3,0.7,0.6,1.3,1,1.9c0.4,0.6,0.9,1.1,1.3,1.6
					c0.5,0.5,1,1,1.6,1.3s1.2,0.7,1.9,1c0.7,0.3,1.3,0.5,2.1,0.6c0.7,0.1,1.5,0.2,2.2,0.2h66.1c0.8,0,1.5-0.1,2.2-0.2
					c0.7-0.1,1.4-0.4,2.1-0.6c0.7-0.3,1.3-0.6,1.9-1s1.1-0.9,1.6-1.3c0.5-0.5,1-1.1,1.3-1.6c0.4-0.6,0.7-1.2,1-1.9
					c0.3-0.7,0.5-1.4,0.6-2.1c0.1-0.7,0.2-1.5,0.2-2.2V339.8c0-0.8-0.1-1.5-0.2-2.2c-0.1-0.7-0.4-1.4-0.6-2.1
					c-0.3-0.7-0.6-1.3-1-1.9c-0.4-0.6-0.9-1.1-1.3-1.6c-0.5-0.5-1-0.9-1.6-1.3c-0.6-0.4-1.2-0.7-1.9-1c-0.7-0.3-1.3-0.5-2.1-0.6
					c-0.7-0.1-1.5-0.2-2.2-0.2L165.6,328.8L165.6,328.8z"/>
				<rect id="rect3263-1-4-9_2_" x="165.6" y="350.8" style="fill:#FFFFFF;" width="66.1" height="110.1"/>
			</g>
		</g>
	</g>
</g>
</svg>
