<?xml version="1.0" encoding="iso-8859-1"?>
<!-- Generator: Adobe Illustrator 20.1.0, SVG Export Plug-In . SVG Version: 6.00 Build 0)  -->
<svg version="1.1" id="Capa_1" xmlns="http://www.w3.org/2000/svg" xmlns:xlink="http://www.w3.org/1999/xlink" x="0px" y="0px"
	 viewBox="0 0 439.3 500" style="enable-background:new 0 0 439.3 500;" xml:space="preserve">
<g>
	<g>
		<g id="bulb_2_">
			<path style="stroke:#000000;stroke-width:2;stroke-miterlimit:10;" d="M221.6,117.5c-70.8,0-128.1,57.3-128.1,128.1
				c0,46.9,42.9,96.7,58.6,140.4c23.3,65.2,20.7,104.2,69.5,104.2c49.5,0,46.2-38.8,69.5-103.9c15.7-43.8,58.6-94.1,58.6-140.7
				C349.7,174.8,292.3,117.5,221.6,117.5z M251.8,434l-57.7,7.2c-2.1-6-4.3-12.9-7-22c0-0.1-0.1-0.2-0.1-0.4l72.1-9
				c-1,3.4-2.1,7-3.1,10.3C254.4,425.3,253.1,429.8,251.8,434z M183.6,407.5c-2.1-7-4.5-14.4-7.2-22.2h90.4
				c-1.4,4.2-2.9,8.4-4.1,12.3L183.6,407.5z M221.6,466.8c-11.8,0-17.2-1.4-23.3-14.6l49.4-6.2C240.5,465.4,235.3,466.8,221.6,466.8
				z M276,362H167.3c-5.8-12.6-12.8-25.2-19.6-37.5c-15.2-27.2-30.9-55.3-30.9-79c0-57.8,47-104.8,104.8-104.8s104.8,47,104.8,104.8
				c0,23.5-15.7,51.8-30.9,79.1C288.7,337,281.7,349.5,276,362z"/>
			<path style="stroke:#000000;stroke-width:2;stroke-miterlimit:10;" d="M221.6,175.7c-38.5,0-69.9,31.3-69.9,69.9
				c0,3.2,2.6,5.8,5.8,5.8s5.8-2.6,5.8-5.8c0-32.1,26.1-58.2,58.2-58.2c3.2,0,5.8-2.6,5.8-5.8S224.8,175.7,221.6,175.7z"/>
		</g>
	</g>
	
		<line style="stroke:#000000;stroke-width:16;stroke-linecap:round;stroke-linejoin:round;stroke-miterlimit:10;" x1="59.3" y1="223.4" x2="9.2" y2="208.6"/>
	
		<line style="stroke:#000000;stroke-width:16;stroke-linecap:round;stroke-linejoin:round;stroke-miterlimit:10;" x1="105.9" y1="125.5" x2="66.3" y2="91.6"/>
	
		<line style="stroke:#000000;stroke-width:16;stroke-linecap:round;stroke-linejoin:round;stroke-miterlimit:10;" x1="380.1" y1="223.4" x2="430.1" y2="208.6"/>
	
		<line style="stroke:#000000;stroke-width:16;stroke-linecap:round;stroke-linejoin:round;stroke-miterlimit:10;" x1="333.4" y1="125.5" x2="373" y2="91.6"/>
	
		<line style="stroke:#000000;stroke-width:16;stroke-linecap:round;stroke-linejoin:round;stroke-miterlimit:10;" x1="220.7" y1="84.6" x2="222.5" y2="9.9"/>
</g>
</svg>
