<?xml version="1.0" encoding="iso-8859-1"?>
<!-- Generator: Adobe Illustrator 20.1.0, SVG Export Plug-In . SVG Version: 6.00 Build 0)  -->
<svg version="1.1" id="Capa_1" xmlns="http://www.w3.org/2000/svg" xmlns:xlink="http://www.w3.org/1999/xlink" x="0px" y="0px"
	 viewBox="0 0 500 408" style="enable-background:new 0 0 500 408;" xml:space="preserve">
<g>
	<g id="landing_page_optimization_2_">
		<g>
			<path style="stroke:#000000;stroke-width:2;stroke-miterlimit:10;" d="M478.1,3.3H21.9c-10,0-18.2,8.2-18.2,18.3v365
				c0,10,8.2,18.2,18.2,18.2h456.2c10,0,18.3-8.2,18.3-18.2v-365C496.4,11.5,488.1,3.3,478.1,3.3z M483.6,382.8c0,5-4.1,9.1-9.1,9.1
				H25.6c-5,0-9.1-4.1-9.1-9.1V112.8h467.1V382.8z M483.6,98.1H16.4V27c0-5,4.1-9.1,9.1-9.1h448.9c5,0,9.1,4.1,9.1,9.1V98.1z"/>
			<path style="stroke:#000000;stroke-width:2;stroke-miterlimit:10;" d="M61.3,35.4C46.4,33.5,33.9,46.1,35.8,61
				c1.3,10.2,9.5,18.4,19.7,19.7C70.3,82.5,82.9,70,81,55.1C79.7,44.9,71.5,36.7,61.3,35.4z M60.7,71.5c-9.4,1.5-17.4-6.5-15.8-15.8
				c0.9-5.7,5.5-10.2,11.2-11.2C65.4,43,73.4,51,71.9,60.3C70.9,66,66.4,70.6,60.7,71.5z"/>
			<path style="stroke:#000000;stroke-width:2;stroke-miterlimit:10;" d="M116.1,35.4C101.2,33.5,88.6,46.1,90.5,61
				c1.3,10.2,9.5,18.4,19.7,19.7c14.9,1.9,27.5-10.7,25.6-25.6C134.5,44.9,126.3,36.7,116.1,35.4z M115.4,71.5
				c-9.4,1.5-17.4-6.5-15.8-15.8c0.9-5.7,5.5-10.2,11.2-11.2c9.4-1.5,17.4,6.5,15.8,15.8C125.7,66,121.1,70.6,115.4,71.5z"/>
			<path style="stroke:#000000;stroke-width:2;stroke-miterlimit:10;" d="M170.8,35.4c-14.9-1.9-27.5,10.7-25.6,25.6
				c1.3,10.2,9.5,18.4,19.7,19.7c14.9,1.9,27.5-10.7,25.6-25.6C189.2,44.9,181,36.7,170.8,35.4z M170.2,71.5
				c-9.4,1.5-17.4-6.5-15.8-15.8c0.9-5.7,5.5-10.2,11.2-11.2c9.4-1.5,17.4,6.5,15.8,15.8C180.4,66,175.9,70.6,170.2,71.5z"/>
			<path style="stroke:#000000;stroke-width:2;stroke-miterlimit:10;" d="M441.6,48.9c0-5-4.1-9.1-9.1-9.1H323c-5,0-9.1,4.1-9.1,9.1
				v18.2c0,5,4.1,9.1,9.1,9.1h109.5c5,0,9.1-4.1,9.1-9.1V48.9z M432.5,67.1H323V48.9h109.5V67.1z"/>
			<path style="stroke:#000000;stroke-width:2;stroke-linecap:round;stroke-linejoin:round;stroke-miterlimit:10;" d="M275.7,227.6
				l29,20.7c0,0,0.1,0.1,0.1,0.1l0,109.9c0,13.4,10.8,26.4,24.1,28c16.5,1.9,30.6-11.1,30.6-27.2V248.4c0,0,0-0.1,0.1-0.1l29-20.7
				c4.1-2.9,7.4-9.4,7.4-14.4v-45.6c0-5-2.9-12.1-6.5-15.6l-20.4-20.4c-3.5-3.5-9.6-1-9.6,4v41.1c0,0,0,0.1-0.1,0.1l-27.2,18.2
				c0,0-0.1,0-0.2,0l-27.2-18.2c0,0-0.1-0.1-0.1-0.1v-42.1c0-4.7-5.6-7-8.9-3.7l-21.1,21.1c-3.6,3.6-6.5,10.6-6.5,15.6v45.6
				C268.2,218.2,271.6,224.6,275.7,227.6z M277.4,167.6c0-3,1.7-7.1,3.8-9.2l14.2-14.2c0.1-0.1,0.2,0,0.2,0.1v32.4v0
				c0,3.1,1.5,5.9,4.1,7.6l0,0l27.4,18.2l0,0c3.1,2,7.1,2,10.1,0v0l27.4-18.2l0,0c2.5-1.7,4.1-4.5,4.1-7.6l0,0v-34.2
				c0-0.1,0.2-0.2,0.2-0.1l14.2,15.1c1.8,1.8,3.8,7.5,3.8,10.1v45.5c0,2.5-1.7,5.7-3.7,7.1l-29,20.7l-3.8,2.7c0,0-0.1,0.1-0.1,0.1
				v4.6l0,110.1c0,9.8-7.3,18.3-17.1,18.9c-10.6,0.7-19.4-7.8-19.4-18.2V248.3v-4.6c0,0,0-0.1-0.1-0.1l-3.8-2.7L281,220.1
				c-1.7-1.2-3.6-4.9-3.6-7V167.6z"/>
			<line style="fill:none;stroke:#000000;stroke-width:2;stroke-miterlimit:10;" x1="332.1" y1="359.1" x2="332.1" y2="258.8"/>
			<path style="stroke:#000000;stroke-width:2;stroke-miterlimit:10;" d="M242.6,286.1h-25.3c-2.1,0-3.8-1.7-3.8-3.8V134.8
				c0-2.1-1.7-3.8-3.8-3.8h-65.4c-2.1,0-3.8,1.7-3.8,3.8v147.6c0,2.1-1.7,3.8-3.8,3.8h-25.3c-3.1,0-4.9,3.5-3.1,6l59.2,81.4
				c4.6,6.4,14.2,6.4,18.8,0l59.2-81.4C247.5,289.6,245.7,286.1,242.6,286.1z M140.5,295.3h5.3c2.1,0,3.8-1.7,3.8-3.8v-5.3V143.9
				c0-2.1,1.7-3.8,3.8-3.8h47.2c2.1,0,3.8,1.7,3.8,3.8v142.2v5.3c0,2.1,1.7,3.8,3.8,3.8h5.3h11.2c3.1,0,4.9,3.5,3.1,6l-47.7,65.5
				c-1.5,2.1-4.6,2.1-6.1,0l-47.7-65.5c-1.8-2.5,0-6,3.1-6H140.5z"/>
		</g>
	</g>
</g>
</svg>
