<?xml version="1.0" encoding="iso-8859-1"?>
<!-- Generator: Adobe Illustrator 20.1.0, SVG Export Plug-In . SVG Version: 6.00 Build 0)  -->
<svg version="1.1" id="Capa_1" xmlns="http://www.w3.org/2000/svg" xmlns:xlink="http://www.w3.org/1999/xlink" x="0px" y="0px"
	 viewBox="0 0 500 256.7" style="enable-background:new 0 0 500 256.7;" xml:space="preserve">
<g>
	<g id="Layer_x0020_1_2_">
		<path d="M293.9,104.2c15.9,4.7,29.6,14.4,39.4,27.4c9.5,12.6,15.1,28.4,15.1,45.3v68v7.8h-7.8H159.3h-7.8v-7.8v-68
			c0-16.9,5.6-32.6,15.1-45.3c9.7-12.9,23.5-22.7,39.4-27.4l4.3-1.3l3.3,3.2c4.8,4.6,10.5,8.4,16.7,10.9c6,2.4,12.6,3.8,19.6,3.8
			c7,0,13.6-1.4,19.6-3.8c6.3-2.6,12-6.3,16.7-10.9l3.2-3.2L293.9,104.2z M437.6,100.1c9.5,0,18.1,3.8,24.3,10.1l0,0
			c6.2,6.2,10.1,14.8,10.1,24.3s-3.8,18.1-10.1,24.3c0.8,0,1.6,0.1,2.4,0.3c10,2.9,18.7,9.1,24.8,17.2c6,8,9.6,17.9,9.6,28.5v40v7.8
			h-7.8H384.3h-7.8v-7.8v-40c0-10.6,3.6-20.6,9.6-28.5c6.1-8.2,14.8-14.3,24.8-17.2c0.8-0.3,1.6-0.3,2.4-0.3l0,0
			c-6.2-6.3-10.1-14.8-10.1-24.3c0-9.5,3.9-18.1,10.1-24.3C419.5,103.9,428.1,100.1,437.6,100.1z M454.7,164.4
			c-5,2.9-10.9,4.6-17.1,4.6s-12.1-1.7-17.1-4.6v0c1.2,4.1-1.1,8.4-5.2,9.6c-6.8,2-12.6,6.2-16.7,11.7c-4,5.4-6.4,12-6.4,19.2v32.2
			h7.4l-0.1-15c0-4.3,3.4-7.8,7.7-7.8c4.3,0,7.8,3.4,7.8,7.7l0.1,15.1h45.4l-0.1-15c0-4.3,3.4-7.8,7.7-7.8c4.3,0,7.8,3.4,7.8,7.7
			l0.1,15.1h7.3V205c0-7.2-2.4-13.9-6.4-19.2c-4.1-5.5-10-9.7-16.7-11.7C455.9,172.9,453.5,168.6,454.7,164.4L454.7,164.4
			L454.7,164.4z M451,121.2c-3.4-3.4-8.2-5.5-13.4-5.5c-5.2,0-10,2.1-13.3,5.5c-3.4,3.4-5.5,8.2-5.5,13.3c0,5.2,2.1,10,5.5,13.3l0,0
			c3.4,3.4,8.1,5.5,13.3,5.5c5.2,0,9.9-2.1,13.3-5.5c3.4-3.4,5.5-8.1,5.5-13.3C456.5,129.3,454.3,124.6,451,121.2z M62.4,100.1
			c9.5,0,18.1,3.8,24.3,10.1l0,0c6.2,6.2,10.1,14.8,10.1,24.3s-3.8,18.1-10.1,24.3c0.8,0,1.6,0.1,2.4,0.3c10,2.9,18.7,9.1,24.8,17.2
			c6,8,9.6,17.9,9.6,28.5v40v7.8h-7.8H9.1H1.4v-7.8v-40c0-10.6,3.6-20.6,9.6-28.5c6.1-8.2,14.8-14.3,24.8-17.2
			c0.8-0.3,1.6-0.3,2.4-0.3l0,0c-6.2-6.3-10.1-14.8-10.1-24.3c0-9.5,3.9-18.1,10.1-24.3S52.9,100.1,62.4,100.1z M79.5,164.4
			c-5,2.9-10.9,4.6-17.1,4.6s-12.1-1.7-17.1-4.6v0c1.2,4.1-1.1,8.4-5.2,9.6c-6.8,2-12.6,6.2-16.7,11.7c-4,5.4-6.4,12-6.4,19.2v32.2
			h7.4l-0.1-15c0-4.3,3.4-7.8,7.7-7.8s7.8,3.4,7.8,7.7l0.1,15.1h45.4l-0.1-15c0-4.3,3.4-7.8,7.7-7.8c4.3,0,7.8,3.4,7.8,7.7l0.1,15.1
			h7.3V205c0-7.2-2.4-13.9-6.4-19.2c-4.1-5.5-10-9.7-16.7-11.7C80.7,172.9,78.3,168.6,79.5,164.4L79.5,164.4L79.5,164.4z
			 M75.8,121.2c-3.4-3.4-8.2-5.5-13.4-5.5s-10,2.1-13.3,5.5c-3.4,3.4-5.5,8.2-5.5,13.3c0,5.2,2.1,10,5.5,13.3l0,0
			c3.4,3.4,8.1,5.5,13.3,5.5s9.9-2.1,13.3-5.5c3.4-3.4,5.5-8.1,5.5-13.3C81.3,129.3,79.2,124.6,75.8,121.2z M250,4
			c14.6,0,27.9,6,37.5,15.6l0,0c9.6,9.6,15.6,22.9,15.6,37.5c0,14.7-6,28-15.6,37.6s-22.9,15.6-37.6,15.6
			c-14.6,0-27.9-5.9-37.5-15.6l0,0c-9.6-9.6-15.6-22.9-15.6-37.5c0-14.7,6-28,15.6-37.6C222,10,235.3,4,250,4z M276.6,30.6
			c-6.8-6.8-16.2-11-26.6-11c-10.4,0-19.8,4.2-26.6,11c-6.8,6.8-11,16.2-11,26.6s4.2,19.8,11,26.6l0,0c6.8,6.8,16.2,11,26.6,11
			c10.4,0,19.8-4.2,26.6-11c6.8-6.8,11-16.2,11-26.6S283.3,37.3,276.6,30.6z M294.1,237.2l-0.2-31c0-4.3,3.4-7.8,7.7-7.8
			c4.3,0,7.8,3.4,7.8,7.7l0.2,31.1h23.3v-60.2c0-13.5-4.5-25.9-12-36c-6.9-9.2-16.4-16.4-27.3-20.5c-5.4,4.6-11.5,8.3-18.1,11
			c-7.9,3.2-16.5,5-25.4,5c-9,0-17.6-1.8-25.4-5c-6.6-2.7-12.8-6.4-18.1-11c-10.9,4.1-20.4,11.3-27.3,20.5c-7.5,10-12,22.5-12,36
			v60.2h23.4l-0.2-31c0-4.3,3.4-7.8,7.7-7.8c4.3,0,7.8,3.4,7.8,7.7l0.2,31.1H294.1L294.1,237.2z"/>
	</g>
</g>
</svg>
