<?xml version="1.0" encoding="iso-8859-1"?>
<!-- Generator: Adobe Illustrator 20.1.0, SVG Export Plug-In . SVG Version: 6.00 Build 0)  -->
<svg version="1.1" id="Capa_1" xmlns="http://www.w3.org/2000/svg" xmlns:xlink="http://www.w3.org/1999/xlink" x="0px" y="0px"
	 viewBox="0 0 200 200" style="enable-background:new 0 0 200 200;" xml:space="preserve">
<g>
	<g id="Flat_copy_6_">
		<g>
			<g>
				<path style="fill:#FFFFFF;" d="M100,196c-52.9,0-96-43.1-96-96S47.1,4,100,4c52.9,0,96,43.1,96,96S152.9,196,100,196z"/>
				<path style="fill:#E3E3E3;" d="M100,6.3c51.7,0,93.7,42,93.7,93.7s-42,93.7-93.7,93.7S6.3,151.7,6.3,100S48.3,6.3,100,6.3
					 M100,1.7c-54.3,0-98.3,44-98.3,98.3c0,54.3,44,98.3,98.3,98.3s98.3-44,98.3-98.3C198.3,45.7,154.3,1.7,100,1.7L100,1.7z"/>
			</g>
		</g>
		<path style="fill:#333333;" d="M113.7,56.3C103.9,59.8,97.7,69,98.4,79l0.2,3.9l-3.9-0.5c-14.2-1.8-26.7-8-37.2-18.3L52.4,59
			l-1.3,3.8c-2.8,8.5-1,17.4,4.8,23.4c3.1,3.3,2.4,3.8-3,1.8c-1.9-0.6-3.5-1.1-3.7-0.9c-0.5,0.6,1.3,7.7,2.8,10.6
			c2,4,6.2,7.8,10.7,10.1l3.8,1.8l-4.5,0.1c-4.4,0-4.5,0.1-4.1,1.7c1.6,5.1,7.7,10.6,14.6,13l4.8,1.7l-4.2,2.5
			c-6.3,3.6-13.6,5.7-21,5.8c-3.5,0.1-6.4,0.4-6.4,0.6c0,0.8,9.5,5.2,15.1,7c16.7,5.1,36.4,2.9,51.3-5.9c10.6-6.2,21.1-18.7,26-30.7
			c2.7-6.4,5.3-18.1,5.3-23.7c0-3.6,0.2-4.1,4.6-8.5c2.6-2.5,5-5.3,5.5-6.1c0.8-1.5,0.7-1.5-3.3-0.2c-6.6,2.4-7.6,2.1-4.3-1.5
			c2.4-2.5,5.3-7.1,5.3-8.5c0-0.2-1.2,0.2-2.5,0.9c-1.4,0.8-4.5,2-6.9,2.7l-4.2,1.3l-3.8-2.6c-2.1-1.4-5.1-3-6.6-3.5
			C123.4,54.9,117.3,55,113.7,56.3z"/>
	</g>
</g>
</svg>
